Hanif_Deep_2_5_grf.mot
version=1
nRows=48
nColumns=19
inDegrees=yes
endheader
time	right_ground_force_vx	right_ground_force_vy	right_ground_force_vz	right_ground_force_px	right_ground_force_py	right_ground_force_pz	right_ground_torque_x	right_ground_torque_y	right_ground_torque_z	left_ground_force_vx	left_ground_force_vy	left_ground_force_vz	left_ground_force_px	left_ground_force_py	left_ground_force_pz	left_ground_torque_x	left_ground_torque_y	left_ground_torque_z
3.345000	-6.714600	400.952000	22.200500	0.220124	0.000000	-1.427820	-31.413400	2.934920	8.285190	-1.106840	413.848000	-28.359300	0.231953	0.000000	-0.966471	26.291700	-8.126620	13.847400
3.350000	-6.650850	397.079000	24.112500	0.220625	0.000000	-1.427720	-31.145800	2.787690	8.420920	-1.785950	411.888000	-30.475300	0.231443	0.000000	-0.966461	26.178000	-7.980210	13.620800
3.355000	-6.162330	395.863000	26.211300	0.220110	0.000000	-1.427760	-31.030400	2.801670	8.213190	-2.324510	408.317000	-32.596200	0.231112	0.000000	-0.966374	25.927100	-7.707940	13.411500
3.360000	-5.614030	392.617000	27.962900	0.219893	0.000000	-1.427970	-30.689800	2.750540	8.077220	-3.070190	405.880000	-33.983000	0.230951	0.000000	-0.966030	25.648100	-7.436280	13.289300
3.365000	-5.473500	390.605000	29.592300	0.219854	0.000000	-1.427760	-30.612600	2.673630	8.034590	-3.743940	402.200000	-36.133500	0.230512	0.000000	-0.965714	25.303300	-7.230080	13.041600
3.370000	-5.351430	387.419000	31.959100	0.219538	0.000000	-1.428160	-30.207800	2.592010	7.869010	-3.767250	399.589000	-38.250200	0.229600	0.000000	-0.965629	25.104400	-6.978900	12.626800
3.375000	-5.028340	383.516000	33.190000	0.219910	0.000000	-1.428660	-29.706300	2.423130	7.936360	-2.940810	395.202000	-40.313300	0.229080	0.000000	-0.965971	24.947500	-6.840540	12.328700
3.380000	-4.924290	382.125000	35.207100	0.219154	0.000000	-1.429000	-29.466000	2.320300	7.630070	-2.550750	393.230000	-42.043200	0.228349	0.000000	-0.965194	24.508400	-6.663020	12.004400
3.385000	-4.942770	378.397000	36.552100	0.219501	0.000000	-1.427950	-29.575500	2.211260	7.698980	-2.570610	389.194000	-44.056100	0.227738	0.000000	-0.965189	24.255900	-6.527010	11.690500
3.390000	-6.318920	375.180000	38.065400	0.219823	0.000000	-1.428640	-29.078700	2.052680	7.771730	-2.084400	386.823000	-45.377100	0.227037	0.000000	-0.964504	23.832800	-6.354050	11.363000
3.395000	-7.242550	374.123000	39.732900	0.219766	0.000000	-1.428740	-28.966200	1.892100	7.738780	-2.307020	382.497000	-46.049200	0.226574	0.000000	-0.964334	23.505600	-6.174670	11.072000
3.400000	-7.583870	369.107000	41.707200	0.219476	0.000000	-1.429330	-28.364100	1.791850	7.548630	-1.655640	381.500000	-48.033400	0.225916	0.000000	-0.964556	23.516100	-6.099590	10.824600
3.405000	-8.315490	367.225000	42.854900	0.219547	0.000000	-1.429090	-28.315800	1.647690	7.542660	-2.174800	378.780000	-49.321200	0.225586	0.000000	-0.963708	23.036500	-5.831150	10.632400
3.410000	-8.141190	363.607000	44.438300	0.219852	0.000000	-1.429190	-28.000500	1.628370	7.601760	-2.178660	376.809000	-49.890300	0.224897	0.000000	-0.964112	23.068700	-5.738600	10.323400
3.415000	-8.460890	361.811000	45.727000	0.219486	0.000000	-1.430280	-27.465700	1.460560	7.428460	-2.299090	374.309000	-50.604000	0.225017	0.000000	-0.963333	22.626400	-5.616930	10.313500
3.420000	-8.849210	357.563000	46.913300	0.219341	0.000000	-1.429890	-27.288900	1.443790	7.312620	-2.093600	369.401000	-50.951200	0.224927	0.000000	-0.963315	22.319300	-5.483080	10.157000
3.425000	-8.977340	355.035000	47.916900	0.219452	0.000000	-1.430090	-27.027300	1.376920	7.309860	-1.782680	367.947000	-52.049100	0.224763	0.000000	-0.962826	22.045600	-5.363800	10.067700
3.430000	-9.436460	353.547000	49.599700	0.218644	0.000000	-1.430630	-26.725700	1.329790	7.007660	-1.650810	362.719000	-52.723100	0.224523	0.000000	-0.963504	21.977100	-5.413940	9.884230
3.435000	-9.462000	350.726000	50.595500	0.218469	0.000000	-1.431330	-26.267300	1.304010	6.902570	-1.943530	363.349000	-52.875000	0.224132	0.000000	-0.963255	21.929300	-5.284880	9.740140
3.440000	-8.542850	347.698000	51.473800	0.218697	0.000000	-1.431080	-26.119800	1.309150	6.931990	-2.500750	357.079000	-52.472100	0.224245	0.000000	-0.963594	21.684000	-5.300850	9.645430
3.445000	-8.501730	345.884000	52.321200	0.219186	0.000000	-1.430920	-26.041800	1.367430	7.091340	-2.143300	355.970000	-53.100300	0.224408	0.000000	-0.963160	21.455100	-5.202230	9.676920
3.450000	-9.074040	343.664000	53.121400	0.218850	0.000000	-1.431350	-25.732400	1.233580	6.928390	-3.169210	354.174000	-52.590000	0.224759	0.000000	-0.963132	21.355700	-5.060110	9.741850
3.455000	-9.640430	341.632000	53.047800	0.219003	0.000000	-1.431390	-25.574600	1.301030	6.962100	-4.193640	353.247000	-52.273200	0.225680	0.000000	-0.963675	21.511700	-5.002390	10.048100
3.460000	-10.174700	339.672000	53.301200	0.219081	0.000000	-1.431630	-25.350500	1.199970	6.947760	-4.765230	350.495000	-52.418000	0.225511	0.000000	-0.964046	21.485000	-4.884920	9.915530
3.465000	-10.002100	337.156000	54.098600	0.219227	0.000000	-1.430560	-25.520800	1.113670	6.949140	-4.954210	347.727000	-51.878200	0.226124	0.000000	-0.963696	21.197100	-4.766250	10.042000
3.470000	-10.782300	336.683000	54.353900	0.219696	0.000000	-1.430960	-25.361500	1.140580	7.118920	-5.007660	346.114000	-52.444600	0.225455	0.000000	-0.963804	21.136900	-4.705130	9.771620
3.475000	-10.832800	333.359000	54.782800	0.218799	0.000000	-1.430860	-25.142000	1.079550	6.747090	-4.734890	342.546000	-52.437300	0.225395	0.000000	-0.964253	21.069100	-4.675580	9.662930
3.480000	-10.373900	330.991000	54.492800	0.219183	0.000000	-1.431570	-24.725800	1.108160	6.831150	-4.381880	339.229000	-52.889400	0.224784	0.000000	-0.964097	20.805500	-4.584850	9.368280
3.485000	-9.821760	327.131000	54.023600	0.219401	0.000000	-1.431310	-24.520800	1.098690	6.822330	-3.384440	334.193000	-53.242800	0.224609	0.000000	-0.964316	20.553800	-4.634150	9.204230
3.490000	-9.760130	322.904000	54.383600	0.219166	0.000000	-1.430940	-24.324900	1.104480	6.673650	-2.026950	330.012000	-53.575400	0.224176	0.000000	-0.963954	20.153000	-4.667810	8.966510
3.495000	-9.367860	317.180000	53.391700	0.219383	0.000000	-1.429600	-24.316000	1.039950	6.617620	-1.385640	325.994000	-53.585500	0.224382	0.000000	-0.964114	19.947900	-4.545950	8.924170
3.500000	-9.368940	314.333000	52.656500	0.219757	0.000000	-1.430400	-23.845700	0.980014	6.667330	-0.952559	320.470000	-53.564800	0.224416	0.000000	-0.964897	19.853800	-4.620230	8.825250
3.505000	-9.058660	307.942000	52.499000	0.220278	0.000000	-1.427730	-24.183400	0.970476	6.712300	-0.750183	318.533000	-52.847800	0.224837	0.000000	-0.965474	19.913900	-4.570460	8.895230
3.510000	-8.754160	304.990000	52.046600	0.221250	0.000000	-1.428510	-23.710300	0.894501	6.938240	-0.808888	315.974000	-52.592900	0.226011	0.000000	-0.965146	19.651800	-4.554740	9.212850
3.515000	-8.548230	301.019000	52.128100	0.221342	0.000000	-1.427850	-23.597600	0.830889	6.876480	-0.677471	311.916000	-52.595200	0.226136	0.000000	-0.966242	19.738800	-4.433100	9.138870
3.520000	-8.089980	298.403000	51.835200	0.222328	0.000000	-1.427130	-23.604900	0.755647	7.105940	-0.250371	306.649000	-52.696600	0.226430	0.000000	-0.966619	19.513500	-4.418180	9.106030
3.525000	-7.305190	294.516000	50.806400	0.222516	0.000000	-1.427010	-23.324100	0.716930	7.051890	-0.004000	302.223000	-52.460800	0.226124	0.000000	-0.966652	19.237100	-4.345670	8.887490
3.530000	-7.817410	289.680000	50.016200	0.223040	0.000000	-1.426050	-23.225000	0.659097	7.094900	0.978068	297.338000	-52.275800	0.227062	0.000000	-0.966500	18.862100	-4.345190	9.048360
3.535000	-7.779270	286.093000	49.592200	0.222830	0.000000	-1.425680	-23.040400	0.545392	6.930520	1.661080	292.600000	-51.932100	0.227392	0.000000	-0.967732	18.909200	-4.213520	8.996230
3.540000	-7.400880	280.242000	48.935600	0.223251	0.000000	-1.425040	-22.745200	0.447275	6.897430	2.375200	286.937000	-51.563800	0.227216	0.000000	-0.968315	18.696300	-4.188660	8.786310
3.545000	-6.862570	274.781000	48.584800	0.223780	0.000000	-1.425730	-22.107700	0.367418	6.900880	3.115120	283.026000	-51.811100	0.226147	0.000000	-0.967710	18.256600	-4.110660	8.363850
3.550000	-6.593840	270.432000	48.570400	0.223688	0.000000	-1.425490	-21.820200	0.288357	6.759780	3.924060	278.851000	-51.111500	0.226140	0.000000	-0.967803	17.997700	-4.087240	8.236670
3.555000	-5.612710	262.967000	48.571100	0.223564	0.000000	-1.424580	-21.452700	0.308461	6.549300	4.755250	273.345000	-51.207900	0.225225	0.000000	-0.967212	17.465900	-3.956150	7.820960
3.560000	-5.352420	259.500000	48.439400	0.223034	0.000000	-1.424520	-21.180300	0.252948	6.314330	5.134960	269.681000	-50.519900	0.225450	0.000000	-0.966844	17.125200	-3.887480	7.770990
3.565000	-4.759070	254.904000	48.115100	0.222848	0.000000	-1.424940	-20.695000	0.222045	6.146240	5.088610	261.599000	-50.459300	0.225157	0.000000	-0.967939	16.895200	-3.833930	7.501720
3.570000	-4.222680	250.531000	47.974800	0.222484	0.000000	-1.423870	-20.606200	0.287677	5.960910	5.221710	255.942000	-50.395300	0.225616	0.000000	-0.968546	16.681500	-3.684450	7.468580
3.575000	-3.931540	245.699000	47.539700	0.222528	0.000000	-1.424230	-20.117100	0.292250	5.860980	5.401420	251.680000	-50.289400	0.225172	0.000000	-0.968053	16.277100	-3.527670	7.222910
3.580000	-3.285440	240.974000	47.060300	0.222461	0.000000	-1.424090	-19.760300	0.254498	5.721110	5.023340	245.686000	-50.087700	0.225743	0.000000	-0.968378	15.971300	-3.495940	7.233400
